<svg xmlns="http://www.w3.org/2000/svg" xmlns:xlink="http://www.w3.org/1999/xlink" width="500" zoomAndPan="magnify" viewBox="0 0 375 374.999991" height="500" preserveAspectRatio="xMidYMid meet" version="1.0"><defs><g/><clipPath id="920081bcc2"><path d="M 37.953125 143.699219 L 130.652344 143.699219 L 130.652344 236.394531 L 37.953125 236.394531 Z M 37.953125 143.699219 " clip-rule="nonzero"/></clipPath><clipPath id="646639dec8"><path d="M 121.59375 143.699219 L 47.011719 143.699219 C 47.011719 148.679688 42.980469 152.753906 37.953125 152.753906 L 37.953125 227.339844 C 42.9375 227.339844 47.011719 231.367188 47.011719 236.394531 L 121.59375 236.394531 C 121.59375 231.410156 125.625 227.339844 130.652344 227.339844 L 130.652344 152.753906 C 125.667969 152.753906 121.59375 148.726562 121.59375 143.699219 Z M 121.59375 143.699219 " clip-rule="nonzero"/></clipPath><clipPath id="8670c2ce7a"><path d="M 48.597656 153.929688 L 58.484375 153.929688 L 58.484375 163.820312 L 48.597656 163.820312 Z M 48.597656 153.929688 " clip-rule="nonzero"/></clipPath><clipPath id="bd33e1c351"><path d="M 53.539062 153.929688 C 50.808594 153.929688 48.597656 156.144531 48.597656 158.875 C 48.597656 161.605469 50.808594 163.820312 53.539062 163.820312 C 56.269531 163.820312 58.484375 161.605469 58.484375 158.875 C 58.484375 156.144531 56.269531 153.929688 53.539062 153.929688 Z M 53.539062 153.929688 " clip-rule="nonzero"/></clipPath><clipPath id="cafbbc9166"><path d="M 110.121094 153.929688 L 120.007812 153.929688 L 120.007812 163.820312 L 110.121094 163.820312 Z M 110.121094 153.929688 " clip-rule="nonzero"/></clipPath><clipPath id="b25612ec66"><path d="M 115.0625 153.929688 C 112.332031 153.929688 110.121094 156.144531 110.121094 158.875 C 110.121094 161.605469 112.332031 163.820312 115.0625 163.820312 C 117.792969 163.820312 120.007812 161.605469 120.007812 158.875 C 120.007812 156.144531 117.792969 153.929688 115.0625 153.929688 Z M 115.0625 153.929688 " clip-rule="nonzero"/></clipPath><clipPath id="8b9758bf54"><path d="M 48.957031 210.523438 L 58.84375 210.523438 L 58.84375 220.414062 L 48.957031 220.414062 Z M 48.957031 210.523438 " clip-rule="nonzero"/></clipPath><clipPath id="1b01e049b1"><path d="M 53.902344 210.523438 C 51.171875 210.523438 48.957031 212.738281 48.957031 215.46875 C 48.957031 218.199219 51.171875 220.414062 53.902344 220.414062 C 56.632812 220.414062 58.84375 218.199219 58.84375 215.46875 C 58.84375 212.738281 56.632812 210.523438 53.902344 210.523438 Z M 53.902344 210.523438 " clip-rule="nonzero"/></clipPath><clipPath id="7b04333dca"><path d="M 110.480469 210.523438 L 120.367188 210.523438 L 120.367188 220.414062 L 110.480469 220.414062 Z M 110.480469 210.523438 " clip-rule="nonzero"/></clipPath><clipPath id="fdfc980f4f"><path d="M 115.425781 210.523438 C 112.695312 210.523438 110.480469 212.738281 110.480469 215.46875 C 110.480469 218.199219 112.695312 220.414062 115.425781 220.414062 C 118.15625 220.414062 120.367188 218.199219 120.367188 215.46875 C 120.367188 212.738281 118.15625 210.523438 115.425781 210.523438 Z M 115.425781 210.523438 " clip-rule="nonzero"/></clipPath><clipPath id="0da4b9fe4f"><path d="M 141.152344 143.699219 L 233.847656 143.699219 L 233.847656 236.394531 L 141.152344 236.394531 Z M 141.152344 143.699219 " clip-rule="nonzero"/></clipPath><clipPath id="abb724a21e"><path d="M 224.792969 143.699219 L 150.207031 143.699219 C 150.207031 148.679688 146.179688 152.753906 141.152344 152.753906 L 141.152344 227.339844 C 146.136719 227.339844 150.207031 231.367188 150.207031 236.394531 L 224.792969 236.394531 C 224.792969 231.410156 228.820312 227.339844 233.847656 227.339844 L 233.847656 152.753906 C 228.863281 152.753906 224.792969 148.726562 224.792969 143.699219 Z M 224.792969 143.699219 " clip-rule="nonzero"/></clipPath><clipPath id="a7469cc330"><path d="M 151.792969 153.929688 L 161.683594 153.929688 L 161.683594 163.820312 L 151.792969 163.820312 Z M 151.792969 153.929688 " clip-rule="nonzero"/></clipPath><clipPath id="5b6f2c1950"><path d="M 156.738281 153.929688 C 154.007812 153.929688 151.792969 156.144531 151.792969 158.875 C 151.792969 161.605469 154.007812 163.820312 156.738281 163.820312 C 159.46875 163.820312 161.683594 161.605469 161.683594 158.875 C 161.683594 156.144531 159.46875 153.929688 156.738281 153.929688 Z M 156.738281 153.929688 " clip-rule="nonzero"/></clipPath><clipPath id="cbf0704879"><path d="M 213.316406 153.929688 L 223.207031 153.929688 L 223.207031 163.820312 L 213.316406 163.820312 Z M 213.316406 153.929688 " clip-rule="nonzero"/></clipPath><clipPath id="34fc62a6b6"><path d="M 218.261719 153.929688 C 215.53125 153.929688 213.316406 156.144531 213.316406 158.875 C 213.316406 161.605469 215.53125 163.820312 218.261719 163.820312 C 220.992188 163.820312 223.207031 161.605469 223.207031 158.875 C 223.207031 156.144531 220.992188 153.929688 218.261719 153.929688 Z M 218.261719 153.929688 " clip-rule="nonzero"/></clipPath><clipPath id="edab4e9e60"><path d="M 152.15625 210.523438 L 162.042969 210.523438 L 162.042969 220.414062 L 152.15625 220.414062 Z M 152.15625 210.523438 " clip-rule="nonzero"/></clipPath><clipPath id="3dabb64946"><path d="M 157.097656 210.523438 C 154.367188 210.523438 152.15625 212.738281 152.15625 215.46875 C 152.15625 218.199219 154.367188 220.414062 157.097656 220.414062 C 159.828125 220.414062 162.042969 218.199219 162.042969 215.46875 C 162.042969 212.738281 159.828125 210.523438 157.097656 210.523438 Z M 157.097656 210.523438 " clip-rule="nonzero"/></clipPath><clipPath id="0cc2fa999b"><path d="M 213.679688 210.523438 L 223.566406 210.523438 L 223.566406 220.414062 L 213.679688 220.414062 Z M 213.679688 210.523438 " clip-rule="nonzero"/></clipPath><clipPath id="2180ad3b2c"><path d="M 218.621094 210.523438 C 215.890625 210.523438 213.679688 212.738281 213.679688 215.46875 C 213.679688 218.199219 215.890625 220.414062 218.621094 220.414062 C 221.351562 220.414062 223.566406 218.199219 223.566406 215.46875 C 223.566406 212.738281 221.351562 210.523438 218.621094 210.523438 Z M 218.621094 210.523438 " clip-rule="nonzero"/></clipPath><clipPath id="da4325d46a"><path d="M 244.347656 143.699219 L 337.046875 143.699219 L 337.046875 236.394531 L 244.347656 236.394531 Z M 244.347656 143.699219 " clip-rule="nonzero"/></clipPath><clipPath id="a90aa053c1"><path d="M 327.988281 143.699219 L 253.40625 143.699219 C 253.40625 148.679688 249.375 152.753906 244.347656 152.753906 L 244.347656 227.339844 C 249.332031 227.339844 253.40625 231.367188 253.40625 236.394531 L 327.988281 236.394531 C 327.988281 231.410156 332.019531 227.339844 337.046875 227.339844 L 337.046875 152.753906 C 332.0625 152.753906 327.988281 148.726562 327.988281 143.699219 Z M 327.988281 143.699219 " clip-rule="nonzero"/></clipPath><clipPath id="c717ac0819"><path d="M 254.992188 153.929688 L 264.878906 153.929688 L 264.878906 163.820312 L 254.992188 163.820312 Z M 254.992188 153.929688 " clip-rule="nonzero"/></clipPath><clipPath id="6577da2988"><path d="M 259.9375 153.929688 C 257.207031 153.929688 254.992188 156.144531 254.992188 158.875 C 254.992188 161.605469 257.207031 163.820312 259.9375 163.820312 C 262.667969 163.820312 264.878906 161.605469 264.878906 158.875 C 264.878906 156.144531 262.667969 153.929688 259.9375 153.929688 Z M 259.9375 153.929688 " clip-rule="nonzero"/></clipPath><clipPath id="7ee6c8de15"><path d="M 316.515625 153.929688 L 326.402344 153.929688 L 326.402344 163.820312 L 316.515625 163.820312 Z M 316.515625 153.929688 " clip-rule="nonzero"/></clipPath><clipPath id="7a36d80321"><path d="M 321.460938 153.929688 C 318.730469 153.929688 316.515625 156.144531 316.515625 158.875 C 316.515625 161.605469 318.730469 163.820312 321.460938 163.820312 C 324.191406 163.820312 326.402344 161.605469 326.402344 158.875 C 326.402344 156.144531 324.191406 153.929688 321.460938 153.929688 Z M 321.460938 153.929688 " clip-rule="nonzero"/></clipPath><clipPath id="554dad2f21"><path d="M 255.351562 210.523438 L 265.242188 210.523438 L 265.242188 220.414062 L 255.351562 220.414062 Z M 255.351562 210.523438 " clip-rule="nonzero"/></clipPath><clipPath id="c9215c46a0"><path d="M 260.296875 210.523438 C 257.566406 210.523438 255.351562 212.738281 255.351562 215.46875 C 255.351562 218.199219 257.566406 220.414062 260.296875 220.414062 C 263.027344 220.414062 265.242188 218.199219 265.242188 215.46875 C 265.242188 212.738281 263.027344 210.523438 260.296875 210.523438 Z M 260.296875 210.523438 " clip-rule="nonzero"/></clipPath><clipPath id="77401e4d8b"><path d="M 316.875 210.523438 L 326.765625 210.523438 L 326.765625 220.414062 L 316.875 220.414062 Z M 316.875 210.523438 " clip-rule="nonzero"/></clipPath><clipPath id="d0faaa2ae2"><path d="M 321.820312 210.523438 C 319.089844 210.523438 316.875 212.738281 316.875 215.46875 C 316.875 218.199219 319.089844 220.414062 321.820312 220.414062 C 324.550781 220.414062 326.765625 218.199219 326.765625 215.46875 C 326.765625 212.738281 324.550781 210.523438 321.820312 210.523438 Z M 321.820312 210.523438 " clip-rule="nonzero"/></clipPath><clipPath id="4df704bf9e"><path d="M 244.347656 249.699219 L 337.046875 249.699219 L 337.046875 342.394531 L 244.347656 342.394531 Z M 244.347656 249.699219 " clip-rule="nonzero"/></clipPath><clipPath id="805bebcf2c"><path d="M 327.988281 249.699219 L 253.40625 249.699219 C 253.40625 254.679688 249.375 258.753906 244.347656 258.753906 L 244.347656 333.339844 C 249.332031 333.339844 253.40625 337.367188 253.40625 342.394531 L 327.988281 342.394531 C 327.988281 337.410156 332.019531 333.339844 337.046875 333.339844 L 337.046875 258.753906 C 332.0625 258.753906 327.988281 254.726562 327.988281 249.699219 Z M 327.988281 249.699219 " clip-rule="nonzero"/></clipPath><clipPath id="7544b6cbf2"><path d="M 254.992188 259.929688 L 264.878906 259.929688 L 264.878906 269.820312 L 254.992188 269.820312 Z M 254.992188 259.929688 " clip-rule="nonzero"/></clipPath><clipPath id="e3fc4165ae"><path d="M 259.9375 259.929688 C 257.207031 259.929688 254.992188 262.144531 254.992188 264.875 C 254.992188 267.605469 257.207031 269.820312 259.9375 269.820312 C 262.667969 269.820312 264.878906 267.605469 264.878906 264.875 C 264.878906 262.144531 262.667969 259.929688 259.9375 259.929688 Z M 259.9375 259.929688 " clip-rule="nonzero"/></clipPath><clipPath id="c60b0ddb4b"><path d="M 316.515625 259.929688 L 326.402344 259.929688 L 326.402344 269.820312 L 316.515625 269.820312 Z M 316.515625 259.929688 " clip-rule="nonzero"/></clipPath><clipPath id="32d4135397"><path d="M 321.460938 259.929688 C 318.730469 259.929688 316.515625 262.144531 316.515625 264.875 C 316.515625 267.605469 318.730469 269.820312 321.460938 269.820312 C 324.191406 269.820312 326.402344 267.605469 326.402344 264.875 C 326.402344 262.144531 324.191406 259.929688 321.460938 259.929688 Z M 321.460938 259.929688 " clip-rule="nonzero"/></clipPath><clipPath id="4e5852d46c"><path d="M 255.351562 316.523438 L 265.242188 316.523438 L 265.242188 326.414062 L 255.351562 326.414062 Z M 255.351562 316.523438 " clip-rule="nonzero"/></clipPath><clipPath id="0762b0c807"><path d="M 260.296875 316.523438 C 257.566406 316.523438 255.351562 318.738281 255.351562 321.46875 C 255.351562 324.199219 257.566406 326.414062 260.296875 326.414062 C 263.027344 326.414062 265.242188 324.199219 265.242188 321.46875 C 265.242188 318.738281 263.027344 316.523438 260.296875 316.523438 Z M 260.296875 316.523438 " clip-rule="nonzero"/></clipPath><clipPath id="5df263671b"><path d="M 316.875 316.523438 L 326.765625 316.523438 L 326.765625 326.414062 L 316.875 326.414062 Z M 316.875 316.523438 " clip-rule="nonzero"/></clipPath><clipPath id="3b4b08ab82"><path d="M 321.820312 316.523438 C 319.089844 316.523438 316.875 318.738281 316.875 321.46875 C 316.875 324.199219 319.089844 326.414062 321.820312 326.414062 C 324.550781 326.414062 326.765625 324.199219 326.765625 321.46875 C 326.765625 318.738281 324.550781 316.523438 321.820312 316.523438 Z M 321.820312 316.523438 " clip-rule="nonzero"/></clipPath><clipPath id="868817790d"><path d="M 141.152344 249.699219 L 233.847656 249.699219 L 233.847656 342.394531 L 141.152344 342.394531 Z M 141.152344 249.699219 " clip-rule="nonzero"/></clipPath><clipPath id="be90ca59ef"><path d="M 224.792969 249.699219 L 150.207031 249.699219 C 150.207031 254.679688 146.179688 258.753906 141.152344 258.753906 L 141.152344 333.339844 C 146.136719 333.339844 150.207031 337.367188 150.207031 342.394531 L 224.792969 342.394531 C 224.792969 337.410156 228.820312 333.339844 233.847656 333.339844 L 233.847656 258.753906 C 228.863281 258.753906 224.792969 254.726562 224.792969 249.699219 Z M 224.792969 249.699219 " clip-rule="nonzero"/></clipPath><clipPath id="4a631a4aae"><path d="M 151.792969 259.929688 L 161.683594 259.929688 L 161.683594 269.820312 L 151.792969 269.820312 Z M 151.792969 259.929688 " clip-rule="nonzero"/></clipPath><clipPath id="0d71590c84"><path d="M 156.738281 259.929688 C 154.007812 259.929688 151.792969 262.144531 151.792969 264.875 C 151.792969 267.605469 154.007812 269.820312 156.738281 269.820312 C 159.46875 269.820312 161.683594 267.605469 161.683594 264.875 C 161.683594 262.144531 159.46875 259.929688 156.738281 259.929688 Z M 156.738281 259.929688 " clip-rule="nonzero"/></clipPath><clipPath id="5c3b5d3338"><path d="M 213.316406 259.929688 L 223.207031 259.929688 L 223.207031 269.820312 L 213.316406 269.820312 Z M 213.316406 259.929688 " clip-rule="nonzero"/></clipPath><clipPath id="f6eafdac6a"><path d="M 218.261719 259.929688 C 215.53125 259.929688 213.316406 262.144531 213.316406 264.875 C 213.316406 267.605469 215.53125 269.820312 218.261719 269.820312 C 220.992188 269.820312 223.207031 267.605469 223.207031 264.875 C 223.207031 262.144531 220.992188 259.929688 218.261719 259.929688 Z M 218.261719 259.929688 " clip-rule="nonzero"/></clipPath><clipPath id="7374949ebe"><path d="M 152.15625 316.523438 L 162.042969 316.523438 L 162.042969 326.414062 L 152.15625 326.414062 Z M 152.15625 316.523438 " clip-rule="nonzero"/></clipPath><clipPath id="5854df9405"><path d="M 157.097656 316.523438 C 154.367188 316.523438 152.15625 318.738281 152.15625 321.46875 C 152.15625 324.199219 154.367188 326.414062 157.097656 326.414062 C 159.828125 326.414062 162.042969 324.199219 162.042969 321.46875 C 162.042969 318.738281 159.828125 316.523438 157.097656 316.523438 Z M 157.097656 316.523438 " clip-rule="nonzero"/></clipPath><clipPath id="641d781e14"><path d="M 213.679688 316.523438 L 223.566406 316.523438 L 223.566406 326.414062 L 213.679688 326.414062 Z M 213.679688 316.523438 " clip-rule="nonzero"/></clipPath><clipPath id="2bcc384d16"><path d="M 218.621094 316.523438 C 215.890625 316.523438 213.679688 318.738281 213.679688 321.46875 C 213.679688 324.199219 215.890625 326.414062 218.621094 326.414062 C 221.351562 326.414062 223.566406 324.199219 223.566406 321.46875 C 223.566406 318.738281 221.351562 316.523438 218.621094 316.523438 Z M 218.621094 316.523438 " clip-rule="nonzero"/></clipPath><clipPath id="1792780ceb"><path d="M 38.105469 249.699219 L 130.800781 249.699219 L 130.800781 342.394531 L 38.105469 342.394531 Z M 38.105469 249.699219 " clip-rule="nonzero"/></clipPath><clipPath id="367c723de0"><path d="M 121.746094 249.699219 L 47.160156 249.699219 C 47.160156 254.679688 43.132812 258.753906 38.105469 258.753906 L 38.105469 333.339844 C 43.089844 333.339844 47.160156 337.367188 47.160156 342.394531 L 121.746094 342.394531 C 121.746094 337.410156 125.773438 333.339844 130.800781 333.339844 L 130.800781 258.753906 C 125.820312 258.753906 121.746094 254.726562 121.746094 249.699219 Z M 121.746094 249.699219 " clip-rule="nonzero"/></clipPath><clipPath id="97599b16da"><path d="M 48.746094 259.929688 L 58.636719 259.929688 L 58.636719 269.820312 L 48.746094 269.820312 Z M 48.746094 259.929688 " clip-rule="nonzero"/></clipPath><clipPath id="2c7bccafde"><path d="M 53.691406 259.929688 C 50.960938 259.929688 48.746094 262.144531 48.746094 264.875 C 48.746094 267.605469 50.960938 269.820312 53.691406 269.820312 C 56.421875 269.820312 58.636719 267.605469 58.636719 264.875 C 58.636719 262.144531 56.421875 259.929688 53.691406 259.929688 Z M 53.691406 259.929688 " clip-rule="nonzero"/></clipPath><clipPath id="9a4ae75f89"><path d="M 110.269531 259.929688 L 120.160156 259.929688 L 120.160156 269.820312 L 110.269531 269.820312 Z M 110.269531 259.929688 " clip-rule="nonzero"/></clipPath><clipPath id="81b10c2bff"><path d="M 115.214844 259.929688 C 112.484375 259.929688 110.269531 262.144531 110.269531 264.875 C 110.269531 267.605469 112.484375 269.820312 115.214844 269.820312 C 117.945312 269.820312 120.160156 267.605469 120.160156 264.875 C 120.160156 262.144531 117.945312 259.929688 115.214844 259.929688 Z M 115.214844 259.929688 " clip-rule="nonzero"/></clipPath><clipPath id="6f58221c3b"><path d="M 49.109375 316.523438 L 58.996094 316.523438 L 58.996094 326.414062 L 49.109375 326.414062 Z M 49.109375 316.523438 " clip-rule="nonzero"/></clipPath><clipPath id="6c84662ce7"><path d="M 54.054688 316.523438 C 51.324219 316.523438 49.109375 318.738281 49.109375 321.46875 C 49.109375 324.199219 51.324219 326.414062 54.054688 326.414062 C 56.785156 326.414062 58.996094 324.199219 58.996094 321.46875 C 58.996094 318.738281 56.785156 316.523438 54.054688 316.523438 Z M 54.054688 316.523438 " clip-rule="nonzero"/></clipPath><clipPath id="c49a7c67e4"><path d="M 110.632812 316.523438 L 120.519531 316.523438 L 120.519531 326.414062 L 110.632812 326.414062 Z M 110.632812 316.523438 " clip-rule="nonzero"/></clipPath><clipPath id="f1c37ecff6"><path d="M 115.574219 316.523438 C 112.84375 316.523438 110.632812 318.738281 110.632812 321.46875 C 110.632812 324.199219 112.84375 326.414062 115.574219 326.414062 C 118.304688 326.414062 120.519531 324.199219 120.519531 321.46875 C 120.519531 318.738281 118.304688 316.523438 115.574219 316.523438 Z M 115.574219 316.523438 " clip-rule="nonzero"/></clipPath><clipPath id="14a035d205"><path d="M 38.105469 37.5 L 130.800781 37.5 L 130.800781 130.199219 L 38.105469 130.199219 Z M 38.105469 37.5 " clip-rule="nonzero"/></clipPath><clipPath id="6aac39503a"><path d="M 121.746094 37.5 L 47.160156 37.5 C 47.160156 42.484375 43.132812 46.558594 38.105469 46.558594 L 38.105469 121.140625 C 43.089844 121.140625 47.160156 125.171875 47.160156 130.199219 L 121.746094 130.199219 C 121.746094 125.214844 125.773438 121.140625 130.800781 121.140625 L 130.800781 46.558594 C 125.820312 46.558594 121.746094 42.527344 121.746094 37.5 Z M 121.746094 37.5 " clip-rule="nonzero"/></clipPath><clipPath id="7a68918f0d"><path d="M 48.746094 47.734375 L 58.636719 47.734375 L 58.636719 57.621094 L 48.746094 57.621094 Z M 48.746094 47.734375 " clip-rule="nonzero"/></clipPath><clipPath id="888e038367"><path d="M 53.691406 47.734375 C 50.960938 47.734375 48.746094 49.945312 48.746094 52.675781 C 48.746094 55.40625 50.960938 57.621094 53.691406 57.621094 C 56.421875 57.621094 58.636719 55.40625 58.636719 52.675781 C 58.636719 49.945312 56.421875 47.734375 53.691406 47.734375 Z M 53.691406 47.734375 " clip-rule="nonzero"/></clipPath><clipPath id="ab2e4c0e82"><path d="M 110.269531 47.734375 L 120.160156 47.734375 L 120.160156 57.621094 L 110.269531 57.621094 Z M 110.269531 47.734375 " clip-rule="nonzero"/></clipPath><clipPath id="437ae14723"><path d="M 115.214844 47.734375 C 112.484375 47.734375 110.269531 49.945312 110.269531 52.675781 C 110.269531 55.40625 112.484375 57.621094 115.214844 57.621094 C 117.945312 57.621094 120.160156 55.40625 120.160156 52.675781 C 120.160156 49.945312 117.945312 47.734375 115.214844 47.734375 Z M 115.214844 47.734375 " clip-rule="nonzero"/></clipPath><clipPath id="6051c5cba3"><path d="M 49.109375 104.328125 L 58.996094 104.328125 L 58.996094 114.214844 L 49.109375 114.214844 Z M 49.109375 104.328125 " clip-rule="nonzero"/></clipPath><clipPath id="a6ca3aa9b8"><path d="M 54.054688 104.328125 C 51.324219 104.328125 49.109375 106.539062 49.109375 109.269531 C 49.109375 112 51.324219 114.214844 54.054688 114.214844 C 56.785156 114.214844 58.996094 112 58.996094 109.269531 C 58.996094 106.539062 56.785156 104.328125 54.054688 104.328125 Z M 54.054688 104.328125 " clip-rule="nonzero"/></clipPath><clipPath id="57c0abcdc2"><path d="M 110.632812 104.328125 L 120.519531 104.328125 L 120.519531 114.214844 L 110.632812 114.214844 Z M 110.632812 104.328125 " clip-rule="nonzero"/></clipPath><clipPath id="e297030fba"><path d="M 115.574219 104.328125 C 112.84375 104.328125 110.632812 106.539062 110.632812 109.269531 C 110.632812 112 112.84375 114.214844 115.574219 114.214844 C 118.304688 114.214844 120.519531 112 120.519531 109.269531 C 120.519531 106.539062 118.304688 104.328125 115.574219 104.328125 Z M 115.574219 104.328125 " clip-rule="nonzero"/></clipPath><clipPath id="eba48d3d50"><path d="M 141.152344 37.5 L 233.847656 37.5 L 233.847656 130.199219 L 141.152344 130.199219 Z M 141.152344 37.5 " clip-rule="nonzero"/></clipPath><clipPath id="a627ea4796"><path d="M 224.792969 37.5 L 150.207031 37.5 C 150.207031 42.484375 146.179688 46.558594 141.152344 46.558594 L 141.152344 121.140625 C 146.136719 121.140625 150.207031 125.171875 150.207031 130.199219 L 224.792969 130.199219 C 224.792969 125.214844 228.820312 121.140625 233.847656 121.140625 L 233.847656 46.558594 C 228.863281 46.558594 224.792969 42.527344 224.792969 37.5 Z M 224.792969 37.5 " clip-rule="nonzero"/></clipPath><clipPath id="fbb1e344dc"><path d="M 151.792969 47.734375 L 161.683594 47.734375 L 161.683594 57.621094 L 151.792969 57.621094 Z M 151.792969 47.734375 " clip-rule="nonzero"/></clipPath><clipPath id="ae64798adb"><path d="M 156.738281 47.734375 C 154.007812 47.734375 151.792969 49.945312 151.792969 52.675781 C 151.792969 55.40625 154.007812 57.621094 156.738281 57.621094 C 159.46875 57.621094 161.683594 55.40625 161.683594 52.675781 C 161.683594 49.945312 159.46875 47.734375 156.738281 47.734375 Z M 156.738281 47.734375 " clip-rule="nonzero"/></clipPath><clipPath id="21b9ecf5a3"><path d="M 213.316406 47.734375 L 223.207031 47.734375 L 223.207031 57.621094 L 213.316406 57.621094 Z M 213.316406 47.734375 " clip-rule="nonzero"/></clipPath><clipPath id="444cea4e11"><path d="M 218.261719 47.734375 C 215.53125 47.734375 213.316406 49.945312 213.316406 52.675781 C 213.316406 55.40625 215.53125 57.621094 218.261719 57.621094 C 220.992188 57.621094 223.207031 55.40625 223.207031 52.675781 C 223.207031 49.945312 220.992188 47.734375 218.261719 47.734375 Z M 218.261719 47.734375 " clip-rule="nonzero"/></clipPath><clipPath id="f0f78f97c0"><path d="M 152.15625 104.328125 L 162.042969 104.328125 L 162.042969 114.214844 L 152.15625 114.214844 Z M 152.15625 104.328125 " clip-rule="nonzero"/></clipPath><clipPath id="fbe3062b29"><path d="M 157.097656 104.328125 C 154.367188 104.328125 152.15625 106.539062 152.15625 109.269531 C 152.15625 112 154.367188 114.214844 157.097656 114.214844 C 159.828125 114.214844 162.042969 112 162.042969 109.269531 C 162.042969 106.539062 159.828125 104.328125 157.097656 104.328125 Z M 157.097656 104.328125 " clip-rule="nonzero"/></clipPath><clipPath id="1597b30aaa"><path d="M 213.679688 104.328125 L 223.566406 104.328125 L 223.566406 114.214844 L 213.679688 114.214844 Z M 213.679688 104.328125 " clip-rule="nonzero"/></clipPath><clipPath id="d89c97ca06"><path d="M 218.621094 104.328125 C 215.890625 104.328125 213.679688 106.539062 213.679688 109.269531 C 213.679688 112 215.890625 114.214844 218.621094 114.214844 C 221.351562 114.214844 223.566406 112 223.566406 109.269531 C 223.566406 106.539062 221.351562 104.328125 218.621094 104.328125 Z M 218.621094 104.328125 " clip-rule="nonzero"/></clipPath><clipPath id="c669a81a82"><path d="M 244.347656 37.5 L 337.046875 37.5 L 337.046875 130.199219 L 244.347656 130.199219 Z M 244.347656 37.5 " clip-rule="nonzero"/></clipPath><clipPath id="00a257a362"><path d="M 327.988281 37.5 L 253.40625 37.5 C 253.40625 42.484375 249.375 46.558594 244.347656 46.558594 L 244.347656 121.140625 C 249.332031 121.140625 253.40625 125.171875 253.40625 130.199219 L 327.988281 130.199219 C 327.988281 125.214844 332.019531 121.140625 337.046875 121.140625 L 337.046875 46.558594 C 332.0625 46.558594 327.988281 42.527344 327.988281 37.5 Z M 327.988281 37.5 " clip-rule="nonzero"/></clipPath><clipPath id="7234b0ded6"><path d="M 254.992188 47.734375 L 264.878906 47.734375 L 264.878906 57.621094 L 254.992188 57.621094 Z M 254.992188 47.734375 " clip-rule="nonzero"/></clipPath><clipPath id="4f8d7aff0a"><path d="M 259.9375 47.734375 C 257.207031 47.734375 254.992188 49.945312 254.992188 52.675781 C 254.992188 55.40625 257.207031 57.621094 259.9375 57.621094 C 262.667969 57.621094 264.878906 55.40625 264.878906 52.675781 C 264.878906 49.945312 262.667969 47.734375 259.9375 47.734375 Z M 259.9375 47.734375 " clip-rule="nonzero"/></clipPath><clipPath id="6f5f3213f9"><path d="M 316.515625 47.734375 L 326.402344 47.734375 L 326.402344 57.621094 L 316.515625 57.621094 Z M 316.515625 47.734375 " clip-rule="nonzero"/></clipPath><clipPath id="f3092260bf"><path d="M 321.460938 47.734375 C 318.730469 47.734375 316.515625 49.945312 316.515625 52.675781 C 316.515625 55.40625 318.730469 57.621094 321.460938 57.621094 C 324.191406 57.621094 326.402344 55.40625 326.402344 52.675781 C 326.402344 49.945312 324.191406 47.734375 321.460938 47.734375 Z M 321.460938 47.734375 " clip-rule="nonzero"/></clipPath><clipPath id="967c070b96"><path d="M 255.351562 104.328125 L 265.242188 104.328125 L 265.242188 114.214844 L 255.351562 114.214844 Z M 255.351562 104.328125 " clip-rule="nonzero"/></clipPath><clipPath id="9ac41687a5"><path d="M 260.296875 104.328125 C 257.566406 104.328125 255.351562 106.539062 255.351562 109.269531 C 255.351562 112 257.566406 114.214844 260.296875 114.214844 C 263.027344 114.214844 265.242188 112 265.242188 109.269531 C 265.242188 106.539062 263.027344 104.328125 260.296875 104.328125 Z M 260.296875 104.328125 " clip-rule="nonzero"/></clipPath><clipPath id="59e8473979"><path d="M 316.875 104.328125 L 326.765625 104.328125 L 326.765625 114.214844 L 316.875 114.214844 Z M 316.875 104.328125 " clip-rule="nonzero"/></clipPath><clipPath id="61d5f74d60"><path d="M 321.820312 104.328125 C 319.089844 104.328125 316.875 106.539062 316.875 109.269531 C 316.875 112 319.089844 114.214844 321.820312 114.214844 C 324.550781 114.214844 326.765625 112 326.765625 109.269531 C 326.765625 106.539062 324.550781 104.328125 321.820312 104.328125 Z M 321.820312 104.328125 " clip-rule="nonzero"/></clipPath></defs><rect x="-37.5" width="450" fill="#ffffff" y="-37.499999" height="449.999989" fill-opacity="1"/><rect x="-37.5" width="450" fill="#000000" y="-37.499999" height="449.999989" fill-opacity="1"/><g clip-path="url(#920081bcc2)"><g clip-path="url(#646639dec8)"><path fill="#7ed957" d="M 37.953125 143.699219 L 130.652344 143.699219 L 130.652344 236.394531 L 37.953125 236.394531 Z M 37.953125 143.699219 " fill-opacity="1" fill-rule="nonzero"/></g></g><g clip-path="url(#8670c2ce7a)"><g clip-path="url(#bd33e1c351)"><path fill="#ffffff" d="M 48.597656 153.929688 L 58.484375 153.929688 L 58.484375 163.820312 L 48.597656 163.820312 Z M 48.597656 153.929688 " fill-opacity="1" fill-rule="nonzero"/></g></g><g clip-path="url(#cafbbc9166)"><g clip-path="url(#b25612ec66)"><path fill="#ffffff" d="M 110.121094 153.929688 L 120.007812 153.929688 L 120.007812 163.820312 L 110.121094 163.820312 Z M 110.121094 153.929688 " fill-opacity="1" fill-rule="nonzero"/></g></g><g fill="#ffffff" fill-opacity="1"><g transform="translate(61.802458, 211.839128)"><g><path d="M 37.148438 -1.257812 L 43.433594 -7.855469 C 45.382812 -10.183594 47.015625 -11.566406 47.269531 -14.582031 L 47.269531 -38.59375 C 47.269531 -45.761719 36.457031 -45.761719 36.457031 -38.59375 L 36.457031 -10.75 L 29.164062 -10.75 L 29.164062 -38.59375 C 29.164062 -45.886719 18.101562 -45.886719 18.101562 -38.59375 L 18.101562 -10.75 L 10.8125 -10.75 L 10.8125 -38.59375 C 10.8125 -45.761719 0 -45.761719 0 -38.59375 L 0 -14.582031 C 0.25 -11.566406 1.886719 -10.183594 3.960938 -7.855469 L 10.121094 -1.257812 C 12.695312 1.320312 16.40625 1.320312 18.855469 -1.257812 L 23.699219 -6.222656 L 28.410156 -1.257812 C 30.863281 1.320312 34.570312 1.320312 37.148438 -1.257812 Z M 37.148438 -1.257812 "/></g></g></g><g clip-path="url(#8b9758bf54)"><g clip-path="url(#1b01e049b1)"><path fill="#ffffff" d="M 48.957031 210.523438 L 58.84375 210.523438 L 58.84375 220.414062 L 48.957031 220.414062 Z M 48.957031 210.523438 " fill-opacity="1" fill-rule="nonzero"/></g></g><g clip-path="url(#7b04333dca)"><g clip-path="url(#fdfc980f4f)"><path fill="#ffffff" d="M 110.480469 210.523438 L 120.367188 210.523438 L 120.367188 220.414062 L 110.480469 220.414062 Z M 110.480469 210.523438 " fill-opacity="1" fill-rule="nonzero"/></g></g><g clip-path="url(#0da4b9fe4f)"><g clip-path="url(#abb724a21e)"><path fill="#fabded" d="M 141.152344 143.699219 L 233.847656 143.699219 L 233.847656 236.394531 L 141.152344 236.394531 Z M 141.152344 143.699219 " fill-opacity="1" fill-rule="nonzero"/></g></g><g clip-path="url(#a7469cc330)"><g clip-path="url(#5b6f2c1950)"><path fill="#ffffff" d="M 151.792969 153.929688 L 161.683594 153.929688 L 161.683594 163.820312 L 151.792969 163.820312 Z M 151.792969 153.929688 " fill-opacity="1" fill-rule="nonzero"/></g></g><g clip-path="url(#cbf0704879)"><g clip-path="url(#34fc62a6b6)"><path fill="#ffffff" d="M 213.316406 153.929688 L 223.207031 153.929688 L 223.207031 163.820312 L 213.316406 163.820312 Z M 213.316406 153.929688 " fill-opacity="1" fill-rule="nonzero"/></g></g><g fill="#ffffff" fill-opacity="1"><g transform="translate(172.816574, 211.839128)"><g><path d="M 26.335938 -32.9375 C 33.566406 -32.9375 33.566406 -44 26.335938 -44 L 9.804688 -44 C -0.816406 -44 -2.578125 -32.875 3.015625 -27.027344 L 10.9375 -18.792969 L 11.378906 -18.792969 L 11.378906 -32.9375 Z M 5.46875 -11 L 20.867188 -11 L 20.867188 -24.703125 L 21.308594 -24.703125 L 28.410156 -18.921875 C 35.765625 -12.761719 31.867188 -0.0625 22.378906 -0.0625 C 16.027344 -0.0625 11.816406 0.0625 5.46875 -0.0625 C -1.824219 -0.0625 -1.824219 -11 5.46875 -11 Z M 5.46875 -11 "/></g></g></g><g clip-path="url(#edab4e9e60)"><g clip-path="url(#3dabb64946)"><path fill="#ffffff" d="M 152.15625 210.523438 L 162.042969 210.523438 L 162.042969 220.414062 L 152.15625 220.414062 Z M 152.15625 210.523438 " fill-opacity="1" fill-rule="nonzero"/></g></g><g clip-path="url(#0cc2fa999b)"><g clip-path="url(#2180ad3b2c)"><path fill="#ffffff" d="M 213.679688 210.523438 L 223.566406 210.523438 L 223.566406 220.414062 L 213.679688 220.414062 Z M 213.679688 210.523438 " fill-opacity="1" fill-rule="nonzero"/></g></g><g clip-path="url(#da4325d46a)"><g clip-path="url(#a90aa053c1)"><path fill="#eba3ff" d="M 244.347656 143.699219 L 337.046875 143.699219 L 337.046875 236.394531 L 244.347656 236.394531 Z M 244.347656 143.699219 " fill-opacity="1" fill-rule="nonzero"/></g></g><g clip-path="url(#c717ac0819)"><g clip-path="url(#6577da2988)"><path fill="#ffffff" d="M 254.992188 153.929688 L 264.878906 153.929688 L 264.878906 163.820312 L 254.992188 163.820312 Z M 254.992188 153.929688 " fill-opacity="1" fill-rule="nonzero"/></g></g><g clip-path="url(#7ee6c8de15)"><g clip-path="url(#7a36d80321)"><path fill="#ffffff" d="M 316.515625 153.929688 L 326.402344 153.929688 L 326.402344 163.820312 L 316.515625 163.820312 Z M 316.515625 153.929688 " fill-opacity="1" fill-rule="nonzero"/></g></g><g fill="#ffffff" fill-opacity="1"><g transform="translate(275.674439, 211.839128)"><g><path d="M -0.0625 -5.089844 C -0.0625 2.074219 10.9375 2.074219 10.9375 -5.089844 L 10.9375 -14.015625 L 21.308594 -23.382812 L 21.308594 -5.089844 C 21.308594 2.074219 32.371094 2.074219 32.371094 -5.089844 L 32.371094 -38.78125 C 32.371094 -45.949219 21.308594 -45.824219 21.308594 -38.71875 L 21.308594 -24.953125 L 10.9375 -24.953125 L 10.9375 -38.78125 C 10.9375 -45.949219 -0.0625 -45.824219 -0.0625 -38.71875 Z M -0.0625 -5.089844 "/></g></g></g><g clip-path="url(#554dad2f21)"><g clip-path="url(#c9215c46a0)"><path fill="#ffffff" d="M 255.351562 210.523438 L 265.242188 210.523438 L 265.242188 220.414062 L 255.351562 220.414062 Z M 255.351562 210.523438 " fill-opacity="1" fill-rule="nonzero"/></g></g><g clip-path="url(#77401e4d8b)"><g clip-path="url(#d0faaa2ae2)"><path fill="#ffffff" d="M 316.875 210.523438 L 326.765625 210.523438 L 326.765625 220.414062 L 316.875 220.414062 Z M 316.875 210.523438 " fill-opacity="1" fill-rule="nonzero"/></g></g><g clip-path="url(#4df704bf9e)"><g clip-path="url(#805bebcf2c)"><path fill="#ffea94" d="M 244.347656 249.699219 L 337.046875 249.699219 L 337.046875 342.394531 L 244.347656 342.394531 Z M 244.347656 249.699219 " fill-opacity="1" fill-rule="nonzero"/></g></g><g clip-path="url(#7544b6cbf2)"><g clip-path="url(#e3fc4165ae)"><path fill="#ffffff" d="M 254.992188 259.929688 L 264.878906 259.929688 L 264.878906 269.820312 L 254.992188 269.820312 Z M 254.992188 259.929688 " fill-opacity="1" fill-rule="nonzero"/></g></g><g clip-path="url(#c60b0ddb4b)"><g clip-path="url(#32d4135397)"><path fill="#ffffff" d="M 316.515625 259.929688 L 326.402344 259.929688 L 326.402344 269.820312 L 316.515625 269.820312 Z M 316.515625 259.929688 " fill-opacity="1" fill-rule="nonzero"/></g></g><g fill="#ffffff" fill-opacity="1"><g transform="translate(283.582984, 317.83911)"><g><path d="M 0.503906 -4.902344 C 0.503906 2.199219 11.503906 2.261719 11.503906 -4.902344 L 11.503906 -38.46875 C 11.503906 -45.570312 0.503906 -45.570312 0.503906 -38.40625 Z M 0.503906 -4.902344 "/></g></g></g><g clip-path="url(#4e5852d46c)"><g clip-path="url(#0762b0c807)"><path fill="#ffffff" d="M 255.351562 316.523438 L 265.242188 316.523438 L 265.242188 326.414062 L 255.351562 326.414062 Z M 255.351562 316.523438 " fill-opacity="1" fill-rule="nonzero"/></g></g><g clip-path="url(#5df263671b)"><g clip-path="url(#3b4b08ab82)"><path fill="#ffffff" d="M 316.875 316.523438 L 326.765625 316.523438 L 326.765625 326.414062 L 316.875 326.414062 Z M 316.875 316.523438 " fill-opacity="1" fill-rule="nonzero"/></g></g><g clip-path="url(#868817790d)"><g clip-path="url(#be90ca59ef)"><path fill="#ffbd59" d="M 141.152344 249.699219 L 233.847656 249.699219 L 233.847656 342.394531 L 141.152344 342.394531 Z M 141.152344 249.699219 " fill-opacity="1" fill-rule="nonzero"/></g></g><g clip-path="url(#4a631a4aae)"><g clip-path="url(#0d71590c84)"><path fill="#ffffff" d="M 151.792969 259.929688 L 161.683594 259.929688 L 161.683594 269.820312 L 151.792969 269.820312 Z M 151.792969 259.929688 " fill-opacity="1" fill-rule="nonzero"/></g></g><g clip-path="url(#5c3b5d3338)"><g clip-path="url(#f6eafdac6a)"><path fill="#ffffff" d="M 213.316406 259.929688 L 223.207031 259.929688 L 223.207031 269.820312 L 213.316406 269.820312 Z M 213.316406 259.929688 " fill-opacity="1" fill-rule="nonzero"/></g></g><g fill="#ffffff" fill-opacity="1"><g transform="translate(172.980637, 317.83911)"><g><path d="M 20.617188 -13.074219 C 23.257812 -15.652344 25.773438 -18.230469 28.472656 -20.804688 C 30.359375 -22.753906 31.304688 -25.015625 31.304688 -27.71875 L 31.304688 -38.53125 C 31.304688 -45.570312 20.679688 -45.886719 20.679688 -38.53125 L 20.679688 -24.011719 L 10.75 -24.011719 C 10.75 -27.71875 10.621094 -34.824219 10.621094 -38.53125 C 10.621094 -45.886719 0 -45.570312 0 -38.53125 L 0 -27.59375 C 0 -25.015625 0.878906 -22.753906 2.765625 -20.804688 C 5.53125 -18.230469 7.855469 -15.652344 10.621094 -13.074219 L 10.621094 -5.46875 C 10.621094 1.761719 20.617188 1.761719 20.617188 -5.46875 Z M 20.617188 -13.074219 "/></g></g></g><g clip-path="url(#7374949ebe)"><g clip-path="url(#5854df9405)"><path fill="#ffffff" d="M 152.15625 316.523438 L 162.042969 316.523438 L 162.042969 326.414062 L 152.15625 326.414062 Z M 152.15625 316.523438 " fill-opacity="1" fill-rule="nonzero"/></g></g><g clip-path="url(#641d781e14)"><g clip-path="url(#2bcc384d16)"><path fill="#ffffff" d="M 213.679688 316.523438 L 223.566406 316.523438 L 223.566406 326.414062 L 213.679688 326.414062 Z M 213.679688 316.523438 " fill-opacity="1" fill-rule="nonzero"/></g></g><g clip-path="url(#1792780ceb)"><g clip-path="url(#367c723de0)"><path fill="#ff914d" d="M 38.105469 249.699219 L 130.800781 249.699219 L 130.800781 342.394531 L 38.105469 342.394531 Z M 38.105469 249.699219 " fill-opacity="1" fill-rule="nonzero"/></g></g><g clip-path="url(#97599b16da)"><g clip-path="url(#2c7bccafde)"><path fill="#ffffff" d="M 48.746094 259.929688 L 58.636719 259.929688 L 58.636719 269.820312 L 48.746094 269.820312 Z M 48.746094 259.929688 " fill-opacity="1" fill-rule="nonzero"/></g></g><g clip-path="url(#9a4ae75f89)"><g clip-path="url(#81b10c2bff)"><path fill="#ffffff" d="M 110.269531 259.929688 L 120.160156 259.929688 L 120.160156 269.820312 L 110.269531 269.820312 Z M 110.269531 259.929688 " fill-opacity="1" fill-rule="nonzero"/></g></g><g fill="#ffffff" fill-opacity="1"><g transform="translate(79.73094, 317.83911)"><g><path d="M 0.503906 -4.902344 C 0.503906 2.199219 11.503906 2.261719 11.503906 -4.902344 L 11.503906 -38.46875 C 11.503906 -45.570312 0.503906 -45.570312 0.503906 -38.40625 Z M 0.503906 -4.902344 "/></g></g></g><g clip-path="url(#6f58221c3b)"><g clip-path="url(#6c84662ce7)"><path fill="#ffffff" d="M 49.109375 316.523438 L 58.996094 316.523438 L 58.996094 326.414062 L 49.109375 326.414062 Z M 49.109375 316.523438 " fill-opacity="1" fill-rule="nonzero"/></g></g><g clip-path="url(#c49a7c67e4)"><g clip-path="url(#f1c37ecff6)"><path fill="#ffffff" d="M 110.632812 316.523438 L 120.519531 316.523438 L 120.519531 326.414062 L 110.632812 326.414062 Z M 110.632812 316.523438 " fill-opacity="1" fill-rule="nonzero"/></g></g><g clip-path="url(#14a035d205)"><g clip-path="url(#6aac39503a)"><path fill="#ea7e16" d="M 38.105469 37.5 L 130.800781 37.5 L 130.800781 130.199219 L 38.105469 130.199219 Z M 38.105469 37.5 " fill-opacity="1" fill-rule="nonzero"/></g></g><g clip-path="url(#7a68918f0d)"><g clip-path="url(#888e038367)"><path fill="#ffffff" d="M 48.746094 47.734375 L 58.636719 47.734375 L 58.636719 57.621094 L 48.746094 57.621094 Z M 48.746094 47.734375 " fill-opacity="1" fill-rule="nonzero"/></g></g><g clip-path="url(#ab2e4c0e82)"><g clip-path="url(#437ae14723)"><path fill="#ffffff" d="M 110.269531 47.734375 L 120.160156 47.734375 L 120.160156 57.621094 L 110.269531 57.621094 Z M 110.269531 47.734375 " fill-opacity="1" fill-rule="nonzero"/></g></g><g fill="#ffffff" fill-opacity="1"><g transform="translate(69.488753, 105.641405)"><g><path d="M 32.183594 -5.46875 L 32.183594 -33.753906 C 32.183594 -40.164062 27.40625 -44.0625 21.308594 -44.0625 C 16.53125 -44.0625 12.886719 -41.613281 11.3125 -36.644531 C 11.3125 -36.519531 11.0625 -36.394531 11.0625 -36.835938 L 11.0625 -38.65625 C 11.0625 -41.738281 8.546875 -44.1875 5.46875 -44.1875 C 2.515625 -44.1875 0 -41.738281 0 -38.65625 L 0 -5.34375 C 0 -2.261719 2.515625 0.125 5.46875 0.125 C 8.546875 0.125 11.0625 -2.261719 11.0625 -5.34375 L 11.0625 -33.0625 L 21.183594 -33.0625 L 21.183594 -5.46875 C 21.183594 -2.386719 23.507812 0.125 26.714844 0.125 C 29.855469 0.125 32.183594 -2.386719 32.183594 -5.46875 Z M 32.183594 -5.46875 "/></g></g></g><g clip-path="url(#6051c5cba3)"><g clip-path="url(#a6ca3aa9b8)"><path fill="#ffffff" d="M 49.109375 104.328125 L 58.996094 104.328125 L 58.996094 114.214844 L 49.109375 114.214844 Z M 49.109375 104.328125 " fill-opacity="1" fill-rule="nonzero"/></g></g><g clip-path="url(#57c0abcdc2)"><g clip-path="url(#e297030fba)"><path fill="#ffffff" d="M 110.632812 104.328125 L 120.519531 104.328125 L 120.519531 114.214844 L 110.632812 114.214844 Z M 110.632812 104.328125 " fill-opacity="1" fill-rule="nonzero"/></g></g><g clip-path="url(#eba48d3d50)"><g clip-path="url(#a627ea4796)"><path fill="#f1de00" d="M 141.152344 37.5 L 233.847656 37.5 L 233.847656 130.199219 L 141.152344 130.199219 Z M 141.152344 37.5 " fill-opacity="1" fill-rule="nonzero"/></g></g><g clip-path="url(#fbb1e344dc)"><g clip-path="url(#ae64798adb)"><path fill="#ffffff" d="M 151.792969 47.734375 L 161.683594 47.734375 L 161.683594 57.621094 L 151.792969 57.621094 Z M 151.792969 47.734375 " fill-opacity="1" fill-rule="nonzero"/></g></g><g clip-path="url(#21b9ecf5a3)"><g clip-path="url(#444cea4e11)"><path fill="#ffffff" d="M 213.316406 47.734375 L 223.207031 47.734375 L 223.207031 57.621094 L 213.316406 57.621094 Z M 213.316406 47.734375 " fill-opacity="1" fill-rule="nonzero"/></g></g><g fill="#ffffff" fill-opacity="1"><g transform="translate(176.086105, 105.641405)"><g><path d="M 9.554688 0 L 20.554688 0 C 27.78125 0 27.78125 -11.0625 20.554688 -11.0625 C 15.085938 -11.0625 16.65625 -10.9375 11.125 -10.9375 L 11.125 -38.847656 C 11.125 -41.800781 8.675781 -44.25 5.53125 -44.25 C 2.578125 -44.25 0 -41.800781 0 -38.847656 L 0 -9.492188 C 0 -4.273438 4.335938 0 9.554688 0 Z M 9.554688 0 "/></g></g></g><g clip-path="url(#f0f78f97c0)"><g clip-path="url(#fbe3062b29)"><path fill="#ffffff" d="M 152.15625 104.328125 L 162.042969 104.328125 L 162.042969 114.214844 L 152.15625 114.214844 Z M 152.15625 104.328125 " fill-opacity="1" fill-rule="nonzero"/></g></g><g clip-path="url(#1597b30aaa)"><g clip-path="url(#d89c97ca06)"><path fill="#ffffff" d="M 213.679688 104.328125 L 223.566406 104.328125 L 223.566406 114.214844 L 213.679688 114.214844 Z M 213.679688 104.328125 " fill-opacity="1" fill-rule="nonzero"/></g></g><g clip-path="url(#c669a81a82)"><g clip-path="url(#00a257a362)"><path fill="#93eaed" d="M 244.347656 37.5 L 337.046875 37.5 L 337.046875 130.199219 L 244.347656 130.199219 Z M 244.347656 37.5 " fill-opacity="1" fill-rule="nonzero"/></g></g><g clip-path="url(#7234b0ded6)"><g clip-path="url(#4f8d7aff0a)"><path fill="#ffffff" d="M 254.992188 47.734375 L 264.878906 47.734375 L 264.878906 57.621094 L 254.992188 57.621094 Z M 254.992188 47.734375 " fill-opacity="1" fill-rule="nonzero"/></g></g><g clip-path="url(#6f5f3213f9)"><g clip-path="url(#f3092260bf)"><path fill="#ffffff" d="M 316.515625 47.734375 L 326.402344 47.734375 L 326.402344 57.621094 L 316.515625 57.621094 Z M 316.515625 47.734375 " fill-opacity="1" fill-rule="nonzero"/></g></g><g fill="#ffffff" fill-opacity="1"><g transform="translate(275.733033, 105.641405)"><g><path d="M 10.8125 -10.8125 L 17.601562 -10.8125 C 20.113281 -10.8125 22.25 -11.628906 24.074219 -13.453125 L 29.542969 -18.667969 C 33.378906 -22.378906 34.070312 -31.679688 30.109375 -35.453125 L 24.074219 -41.484375 C 22.25 -43.183594 20.113281 -44.0625 17.601562 -44.0625 L 9.238281 -44.0625 C 4.148438 -44.0625 -0.0625 -39.851562 -0.0625 -34.761719 L -0.0625 -5.53125 C -0.0625 -2.453125 2.453125 0.0625 5.46875 0.0625 C 8.546875 0.0625 10.8125 -2.453125 10.8125 -5.53125 Z M 21.371094 -21.8125 L 10.9375 -21.8125 L 10.9375 -33.1875 L 21.371094 -33.0625 Z M 21.371094 -21.8125 "/></g></g></g><g clip-path="url(#967c070b96)"><g clip-path="url(#9ac41687a5)"><path fill="#ffffff" d="M 255.351562 104.328125 L 265.242188 104.328125 L 265.242188 114.214844 L 255.351562 114.214844 Z M 255.351562 104.328125 " fill-opacity="1" fill-rule="nonzero"/></g></g><g clip-path="url(#59e8473979)"><g clip-path="url(#61d5f74d60)"><path fill="#ffffff" d="M 316.875 104.328125 L 326.765625 104.328125 L 326.765625 114.214844 L 316.875 114.214844 Z M 316.875 104.328125 " fill-opacity="1" fill-rule="nonzero"/></g></g></svg>